<svg id="visual" viewBox="0 0 450 900" width="450" height="900" xmlns="http://www.w3.org/2000/svg" xmlns:xlink="http://www.w3.org/1999/xlink" version="1.1"><rect x="0" y="0" width="450" height="900" fill="#003161"></rect><path d="M0 697L15 681.7C30 666.3 60 635.7 90 618.3C120 601 150 597 180 604.5C210 612 240 631 270 658.2C300 685.3 330 720.7 360 714C390 707.3 420 658.7 435 634.3L450 610L450 901L435 901C420 901 390 901 360 901C330 901 300 901 270 901C240 901 210 901 180 901C150 901 120 901 90 901C60 901 30 901 15 901L0 901Z" fill="#FFF4B7" stroke-linecap="round" stroke-linejoin="miter"></path></svg>